# xmcd CD database file
#
# Track frame offsets:
#	150
#	19358
#	31516
#	49897
#	63786
#	76606
#
# Disc length: 1342 seconds
#
# Revision: 0
# Processed by: cddbd v1.4PL0 Copyright (c) Steve Scherf et al.
# Submitted via: CDex 1.50
#
DISCID=39053c06
DTITLE=Sarah Yeager - Stand Apart
DYEAR=1999
DGENRE=Worship
TTITLE0=Come Breathe
TTITLE1=Other Side
TTITLE2=24 Hours
TTITLE3=Come Rescue Me
TTITLE4=Stand Apart
TTITLE5=Shouts Of Joy
EXTD=YEAR: 1999
EXTT0=
EXTT1=
EXTT2=
EXTT3=
EXTT4=
EXTT5=
PLAYORDER=
